<svg width="5" height="40" viewBox="0 0 5 40" fill="none" xmlns="http://www.w3.org/2000/svg">
<g clip-path="url(#clip0_204_2)">
<path d="M3.21429 0C2.60514 0.0817562 2.29863 0.951094 2.21611 2.52607C1.87537 9.03168 1.46983 20.0968 1.79531 27.9001H3.1256C2.96537 20.1023 3.05766 9.08846 3.21429 0ZM1.79194 29.0712L1.78749 30.6446H3.19554C3.17931 30.1202 3.1648 29.5957 3.15194 29.0711L1.79194 29.0712ZM0 31.6856V32.8567H5V31.6856H0ZM1.80337 34.0431V39.6075C2.17783 40.119 2.84646 40.1425 3.23194 39.6075V34.0431H2.71823C2.93669 34.1171 3.08269 34.313 3.08297 34.5327C3.08291 34.8201 2.83686 35.0531 2.53326 35.0532C2.83686 35.0532 3.08297 35.2862 3.08297 35.5736C3.08291 35.8611 2.83691 36.0942 2.53326 36.0942C2.83691 36.0942 3.08297 36.3272 3.08291 36.6146C3.08297 36.9021 2.83686 37.1352 2.53326 37.1351C2.83686 37.1352 3.08291 37.3682 3.08297 37.6556C3.08291 37.9431 2.83686 38.1762 2.53326 38.1761C2.83686 38.1762 3.08297 38.4092 3.08297 38.6966C3.08297 38.9841 2.83691 39.2172 2.53326 39.2171C2.22971 39.2171 1.98354 38.984 1.98354 38.6967C1.98366 38.4092 2.22971 38.1761 2.53326 38.1761C2.22971 38.1761 1.98366 37.9432 1.98366 37.6558C1.98366 37.3682 2.2296 37.1351 2.53326 37.1351C2.22954 37.1351 1.98366 36.9022 1.98366 36.6147C1.98366 36.3273 2.22966 36.0941 2.53326 36.0942C2.22966 36.0941 1.98366 35.8611 1.9836 35.5737C1.98366 35.2862 2.22966 35.0531 2.53326 35.0532C2.22966 35.0531 1.98366 34.8201 1.9836 34.5327C1.98383 34.3131 2.12966 34.1173 2.34789 34.0431L1.80337 34.0431Z" fill="#F8F8FF"/>
</g>
<defs>
<clipPath id="clip0_204_2">
<rect width="5" height="40" fill="white"/>
</clipPath>
</defs>
</svg>
