<svg width="24" height="24" viewBox="0 0 24 24" fill="none" xmlns="http://www.w3.org/2000/svg">
<g clip-path="url(#clip0_199_6)">
<path d="M12 0C5.373 0 0 5.373 0 12C0 18.627 5.373 24 12 24C18.627 24 24 18.627 24 12C24 5.373 18.627 0 12 0ZM12.016 22.762H12C6.05 22.753 1.235 17.922 1.244 11.973C1.253 6.023 6.083 1.207 12.033 1.216C17.976 1.225 22.789 6.045 22.789 11.989C22.789 17.939 17.966 22.762 12.016 22.762ZM21.491 11.905C21.3191 12.876 20.8922 13.7838 20.2539 14.5354C19.6157 15.2871 18.7891 15.8555 17.8589 16.1826C16.9286 16.5096 15.9282 16.5835 14.96 16.3966C13.9918 16.2097 13.0907 15.7688 12.349 15.119C13.6205 14.7859 14.7567 14.0652 15.6 13.057L15.704 13.226C16.043 13.81 16.272 14.452 16.38 15.119C16.4554 14.2189 16.3364 13.3131 16.031 12.463C16.8325 11.2309 17.1801 9.75831 17.0141 8.2979C16.8481 6.83749 16.179 5.4804 15.1215 4.45959C14.064 3.43878 12.6842 2.81791 11.2188 2.70358C9.75347 2.58924 8.29402 2.98856 7.091 3.833C8.01624 3.48578 9.01727 3.39131 9.99113 3.55929C10.965 3.72726 11.8765 4.15164 12.632 4.78875C13.3874 5.42586 13.9595 6.25272 14.2894 7.18427C14.6193 8.11582 14.6951 9.11844 14.509 10.089C13.5781 9.16015 12.381 8.5443 11.084 8.327L11.177 8.152C11.5137 7.56515 11.9557 7.04545 12.481 6.619C11.6645 7.00587 10.9408 7.56382 10.359 8.255C8.8949 8.18017 7.45025 8.61608 6.27191 9.48826C5.09357 10.3604 4.25466 11.6147 3.89855 13.0368C3.54243 14.4589 3.69121 15.9606 4.31945 17.2851C4.9477 18.6097 6.01642 19.675 7.343 20.299C6.57754 19.6713 5.9934 18.8507 5.65085 17.922C5.3083 16.9932 5.21973 15.9899 5.3943 15.0155C5.56886 14.041 6.00022 13.1309 6.6439 12.3788C7.28757 11.6267 8.12023 11.0599 9.056 10.737C8.72275 11.9983 8.78736 13.3318 9.241 14.555H9.055C8.37848 14.5578 7.70724 14.4358 7.075 14.195C7.81579 14.7096 8.65845 15.0592 9.546 15.22C10.3096 16.7142 11.6353 17.844 13.2316 18.3612C14.8279 18.8783 16.5643 18.7405 18.059 17.978C19.1639 17.4142 20.0785 16.5378 20.6888 15.4579C21.299 14.378 21.578 13.1424 21.491 11.905ZM10.473 10.462C11.752 10.3712 13.0233 10.7236 14.073 11.46C13.51 12.6123 12.5686 13.5365 11.406 14.078C10.6882 13.0159 10.3586 11.7388 10.473 10.462Z" fill="#F8F8FF"/>
</g>
<defs>
<clipPath id="clip0_199_6">
<rect width="24" height="24" fill="white"/>
</clipPath>
</defs>
</svg>
